Coordinates
version=1
nRows=17
nColumns=36
inDegrees=yes

Units are S.I. units (second, meters, Newtons, ...)
If the header above contains a line with 'inDegrees', this indicates whether rotational values are in degrees (yes) or radians (no).

endheader
time	pelvis_tilt	pelvis_list	pelvis_rotation	pelvis_tx	pelvis_ty	pelvis_tz	hip_flexion_r	hip_adduction_r	hip_rotation_r	knee_angle_r	knee_angle_r_beta	ankle_angle_r	subtalar_angle_r	mtp_angle_r	hip_flexion_l	hip_adduction_l	hip_rotation_l	knee_angle_l	knee_angle_l_beta	ankle_angle_l	subtalar_angle_l	mtp_angle_l	lumbar_extension	lumbar_bending	lumbar_rotation	arm_flex_r	arm_add_r	arm_rot_r	elbow_flex_r	pro_sup_r	arm_flex_l	arm_add_l	arm_rot_l	elbow_flex_l	pro_sup_l
      4.90000000	     14.26725037	     -5.85670069	      5.60100522	      0.58265740	      1.03163103	     -0.11852383	     33.08886463	      4.70442133	    -15.65459791	      6.56399677	      0.11456336	    -15.28734014	      6.67062408	     -7.49999987	    -11.60343510	     -0.37424568	      7.71997553	     10.58296107	      0.18470752	     12.48246401	     -0.21469070	     -7.49999987	    -17.11975829	      5.98113586	     -4.61390963	      3.74281924	     -4.43500349	      7.61636920	     23.02208140	     72.82472524	      3.21348915	     -8.95438398	     19.15112547	     26.92520614	     70.28368561
      4.91666670	     14.63914742	     -6.28184496	      6.04913244	      0.58554484	      1.03385972	     -0.12184207	     33.55810485	      4.43774734	    -15.90787070	      8.34458954	      0.14564056	    -15.13699620	      5.50008128	     -7.49999987	    -12.05254939	     -0.89890122	      7.99742406	     10.35823661	      0.18078533	     11.86600191	     -0.18869178	     -7.49999987	    -17.27134248	      6.73843155	     -4.80753340	      3.73481490	     -4.66034575	      7.56994577	     22.89587983	     72.87240761	      3.07991723	     -8.82908735	     19.14699167	     26.83410825	     70.32460451
      4.93333330	     15.01867339	     -6.25741054	      6.59297265	      0.58500368	      1.03470328	     -0.12054631	     33.91456175	      3.97461480	    -14.93613979	     10.01685335	      0.17482707	    -14.91496397	      3.68227186	     -7.49999987	    -12.43442954	     -0.93106585	      8.62493871	     10.20857736	      0.17817329	     11.18594338	     -1.36511681	     -7.49999987	    -17.45514829	      6.89228904	     -5.46735527	      3.79272232	     -4.51648413	      7.38072591	     22.80003628	     72.15985993	      2.79079206	     -8.99879591	     18.91412476	     26.83563829	     69.69189280
      4.95000000	     15.06792569	     -6.12220664	      7.03477282	      0.58614978	      1.03122133	     -0.12186955	     34.54225593	      3.45031392	    -13.97041223	     11.28966918	      0.19704190	    -14.70926095	      3.47533999	     -7.49999987	    -12.43585413	     -0.77593408	      9.30767627	     10.28235827	      0.17946101	     10.83585128	     -2.37307488	     -7.49999987	    -17.14937341	      6.87941732	     -5.89006918	      3.97749692	     -4.42998094	      7.34557087	     21.72490516	     72.10674562	      2.66508337	     -8.95613063	     18.64951271	     26.16403104	     69.45972951
      4.96666670	     15.36847462	     -5.90454051	      7.45124558	      0.58555305	      1.02646384	     -0.11913409	     34.85517006	      3.10071412	    -12.94855434	     12.04648178	      0.21025077	    -14.29161779	      4.14341854	     -7.49999987	    -12.64852306	     -0.61195936	      9.92542529	     10.53864878	      0.18393412	     10.67826733	     -3.35568695	     -7.49999987	    -17.49206044	      6.70397966	     -6.13648940	      3.77816173	     -4.35540414	      6.84360008	     22.23192181	     71.41798291	      2.49902196	     -9.22560492	     18.28429667	     26.55670910	     68.91737458
      4.98333330	     15.30164067	     -5.61555935	      7.81590231	      0.58924112	      1.02915758	     -0.12120911	     35.15468910	      2.57892983	    -11.96833093	     12.87293962	      0.22467518	    -13.48677417	      5.55354335	     -7.49999987	    -12.50066858	     -0.37779749	     10.25153664	     10.77958030	      0.18813917	     10.82570196	     -3.43737556	     -7.49999987	    -17.06788035	      6.39813402	     -6.28123391	      3.79195318	     -4.28234355	      6.79733376	     21.20796995	     72.01461316	      2.56792283	     -9.22533743	     18.40825423	     25.63031928	     69.32736795
      5.00000000	     15.30555302	     -5.38226004	      8.28980140	      0.58890862	      1.02862491	     -0.11747479	     35.04343338	      2.30097758	    -11.08341465	     12.77724396	      0.22300498	    -12.90118652	      6.81465501	     -7.49999987	    -12.42249330	     -0.32707508	     10.29529188	     10.82860760	      0.18899486	     10.96419820	     -3.33107846	     -7.49999987	    -16.89414031	      6.08033178	     -6.40547556	      3.66077664	     -4.18912053	      6.61631133	     20.91894183	     71.84975244	      2.61822593	     -9.39451084	     18.48091440	     25.16799299	     69.08724488
      5.01666670	     15.55826799	     -5.09869845	      8.84576870	      0.59175494	      1.03204879	     -0.11721719	     34.14411177	      2.01072716	    -10.32073753	     12.13799723	      0.21184802	    -12.39081989	      7.63626626	     -7.49999987	    -12.67574116	     -0.36680603	     10.26256457	     10.96450211	      0.19136666	     10.92995784	     -3.12111061	     -7.49999987	    -16.93396789	      5.76810453	     -6.65324104	      3.44032047	     -4.06788875	      6.31916037	     21.06006778	     70.74143916	      2.42195936	     -9.67551883	     18.38517888	     25.36337626	     68.19367845
      5.03333330	     15.40972725	     -4.86955411	      9.20019442	      0.59261607	      1.02582169	     -0.11253048	     33.94604634	      1.80243861	     -9.46872045	     11.47322140	      0.20024549	    -11.92033670	      9.08554378	     -7.49999987	    -12.43937826	     -0.41787186	      9.89196314	     11.19879861	      0.19545591	     11.58573485	     -2.36319487	     -7.49999987	    -16.47500003	      5.23861039	     -6.58034579	      3.32892353	     -3.90334338	      6.09051905	     20.50133594	     71.35275038	      2.60930260	     -9.81254709	     18.40334576	     24.45260733	     68.59314197
      5.05000000	     15.71564955	     -4.73243888	      9.42009461	      0.59612794	      1.03273213	     -0.11557228	     32.80027869	      1.68459259	     -8.76532361	     10.71080347	      0.18693879	    -11.72309123	      9.11847295	     -7.49999987	    -12.81881316	     -0.52138252	      9.61293518	     11.30504595	      0.19731027	     11.54128035	     -1.74604641	     -7.49999987	    -16.53137696	      5.05629128	     -6.63371379	      3.33926799	     -3.84820478	      5.93710531	     20.42272287	     71.69963892	      2.46515309	     -9.98515264	     18.34536849	     24.23051018	     68.81025456
      5.06666670	     15.88215881	     -4.67679580	      9.26556171	      0.59785269	      1.03118037	     -0.11737838	     31.96801150	      1.64438753	     -8.04068823	     10.32224100	      0.18015709	    -11.02602623	      9.23615516	     -7.49999987	    -13.15520897	     -0.47723514	      9.17105950	     11.25373164	      0.19641467	     11.92800539	     -1.50001142	     -7.49999987	    -16.47266716	      4.93120311	     -6.46366860	      3.40675569	     -3.85170999	      5.67908533	     20.49043890	     71.07631002	      2.16760237	    -10.06544066	     18.06849818	     24.25934414	     68.21549044
      5.08333330	     15.74163069	     -4.43901820	      9.35388550	      0.59440957	      1.03013044	     -0.11432438	     31.61913176	      1.33265425	     -8.08487195	      9.90130844	      0.17281043	    -10.67463372	      9.09607263	     -7.49999987	    -13.02360501	     -0.27409931	      8.87217468	     11.34875746	      0.19807318	     11.80981700	     -1.42123730	     -7.49999987	    -16.26183401	      4.58765851	     -6.38308150	      3.38370865	     -3.81875494	      5.68813161	     20.47788298	     71.13731898	      2.01019226	    -10.22044943	     18.01390735	     24.12694037	     68.23181200
      5.10000000	     15.67522010	     -4.39892794	      9.17917930	      0.59712923	      1.02873560	     -0.11600718	     31.22217307	      1.30635091	     -8.10670725	      9.96470586	      0.17391693	    -10.18095135	      7.86902074	     -7.49999987	    -12.91944329	     -0.21851177	      8.28219046	     11.43571664	      0.19959091	     12.17483189	     -0.63589673	     -7.49999987	    -16.03489823	      4.53807106	     -6.24595765	      3.59049419	     -3.81206334	      5.73223453	     20.20496965	     71.48615979	      1.75048166	    -10.12934228	     17.25958193	     23.72536676	     68.06763586
      5.11666670	     15.67988675	     -4.31743225	      8.98834302	      0.59804052	      1.02708763	     -0.11566484	     30.73907214	      1.26116487	     -8.50986392	      9.87733484	      0.17239201	     -9.72222960	      6.90593402	     -7.49999987	    -12.90817569	     -0.08195370	      7.97886696	     11.58449613	      0.20218760	     12.39253197	     -0.50355056	     -7.49999987	    -16.08692355	      4.46052986	     -6.05227707	      3.56277051	     -3.82807705	      5.55543602	     20.76179179	     70.54723805	      1.28745242	    -10.21167399	     16.67184999	     24.39191212	     67.14657381
      5.13333330	     15.55132682	     -4.21639003	      8.88307980	      0.59883019	      1.03489106	     -0.11607076	     30.16106374	      1.14571813	     -9.34568594	     10.04683365	      0.17535033	     -9.49716226	      6.11098829	     -7.49999987	    -12.72260909	      0.02043056	      7.87445821	     11.75305652	      0.20512953	     11.73921444	     -0.27077759	     -7.49999987	    -15.76195709	      4.39773161	     -5.91054012	      3.53507893	     -3.89329098	      5.60616395	     20.78475909	     70.66094114	      0.96269892	    -10.18026999	     16.58175520	     24.34477000	     67.16747592
      5.15000000	     15.45865848	     -4.34569959	      8.63477689	      0.60176666	      1.03489063	     -0.11554836	     29.52533237	      1.41291129	    -10.14172705	     10.25911462	      0.17905533	     -9.28042127	      5.38565234	     -7.49999987	    -12.70514622	     -0.11724873	      7.62012916	     11.78168015	      0.20562911	     11.56973653	     -0.23247636	     -7.49999987	    -15.43431865	      4.53216344	     -5.72198018	      3.57969422	     -3.98321578	      5.65889684	     20.81210081	     70.78578589	      0.56663237	    -10.12485870	     16.44385901	     24.28814040	     67.17957266
      5.16666670	     15.53118570	     -4.55321426	      8.29075390	      0.60073591	      1.03376498	     -0.11393171	     28.78635845	      1.85080399	    -10.59704965	     10.49291072	      0.18313584	     -9.21960913	      4.47125515	     -7.49999987	    -12.61550874	     -0.30631884	      7.19546801	     12.01149760	      0.20964018	     11.60025772	      0.06880654	     -7.49999987	    -15.49146793	      4.74415304	     -5.42522257	      3.74892966	     -4.12744744	      5.98517597	     20.86011865	     71.39429358	      0.24014150	     -9.93128774	     15.49923529	     24.36991855	     67.19827432
